<svg width="44" height="49" viewBox="0 0 44 49" fill="none" xmlns="http://www.w3.org/2000/svg">
<path d="M0 20.6667C0 9.9892 9.54193 1.33337 21.3125 1.33337C33.0831 1.33337 42.625 9.9892 42.625 20.6667C42.625 31.3442 33.0831 40 21.3125 40C9.54193 40 0 31.3442 0 20.6667Z" fill="white"/>
<mask id="mask0_225_34" style="mask-type:luminance" maskUnits="userSpaceOnUse" x="-11" y="-8" width="66" height="64">
<path fill-rule="evenodd" clip-rule="evenodd" d="M-11 24C-11 6.32689 3.7746 -8 22 -8C40.2254 -8 55 6.32689 55 24C55 41.6731 40.2254 56 22 56C3.7746 56 -11 41.6731 -11 24Z" fill="white"/>
</mask>
<g mask="url(#mask0_225_34)">
<path fill-rule="evenodd" clip-rule="evenodd" d="M15.6123 23.3978C15.6123 21.8851 16.7348 20.6451 18.1567 20.6451C19.5785 20.6451 20.726 21.8851 20.701 23.3978C20.701 24.9106 19.5785 26.1505 18.1567 26.1505C16.7598 26.1505 15.6123 24.9106 15.6123 23.3978ZM24.7177 23.3978C24.7177 21.8851 25.8402 20.6451 27.262 20.6451C28.6839 20.6451 29.8064 21.8851 29.8064 23.3978C29.8064 24.9106 28.6839 26.1505 27.262 26.1505C25.8651 26.1505 24.7177 24.9106 24.7177 23.3978Z" fill="#7289DA"/>
<path fill-rule="evenodd" clip-rule="evenodd" d="M5.15429 0H38.8457C41.6869 0 44 2.21591 44 4.96172V48.172L38.5943 43.5957L35.552 40.8981L32.3337 38.0318L33.6663 42.4877H5.15429C2.31314 42.4877 0 40.2718 0 37.526V4.96172C0 2.21591 2.31314 0 5.15429 0ZM27.4811 29.5055C28.2354 30.4208 29.1406 31.4565 29.1406 31.4565C34.6971 31.2879 36.8343 27.7954 36.8343 27.7954C36.8343 20.0397 33.2137 13.7533 33.2137 13.7533C29.5931 11.152 26.1486 11.2242 26.1486 11.2242L25.7966 11.6096C30.0708 12.8621 32.0571 14.6685 32.0571 14.6685C29.4423 13.2956 26.8777 12.6212 24.4891 12.3563C22.6788 12.1636 20.944 12.2118 19.4103 12.4045C19.2786 12.4045 19.166 12.4228 19.0392 12.4435C19.0208 12.4465 19.002 12.4496 18.9828 12.4526C18.1028 12.5249 15.9657 12.838 13.2754 13.97C12.3451 14.3795 11.792 14.6685 11.792 14.6685C11.792 14.6685 13.8788 12.7657 18.4046 11.5133L18.1531 11.2242C18.1531 11.2242 14.7086 11.152 11.088 13.7533C11.088 13.7533 7.46742 20.0397 7.46742 27.7954C7.46742 27.7954 9.57942 31.2879 15.136 31.4565C15.136 31.4565 16.0663 30.3726 16.8206 29.4574C13.6274 28.5421 12.4206 26.6152 12.4206 26.6152C12.4206 26.6152 12.672 26.7838 13.1246 27.0247C13.1497 27.0488 13.1748 27.0728 13.2251 27.0969C13.2628 27.121 13.3006 27.1391 13.3383 27.1571C13.376 27.1752 13.4137 27.1933 13.4514 27.2174C14.08 27.5546 14.7086 27.8195 15.2868 28.0363C16.3177 28.4217 17.5497 28.807 18.9828 29.072C20.8686 29.4092 23.0811 29.5296 25.4948 29.0961C26.6766 28.9034 27.8834 28.5662 29.1406 28.0604C30.0206 27.7472 31.0011 27.2896 32.032 26.6393C32.032 26.6393 30.7748 28.6143 27.4811 29.5055Z" fill="#7289DA"/>
</g>
</svg>
